<?xml version="1.0" encoding="UTF-8" standalone="no"?>
<!-- Created with Inkscape (http://www.inkscape.org/) -->

<svg
   version="1.1"
   id="svg1"
   width="545.453"
   height="545.453"
   viewBox="0 0 545.453 545.45301"
   sodipodi:docname="bunny-pack.svg"
   inkscape:version="1.4.2 (ebf0e940, 2025-05-08)"
   xmlns:inkscape="http://www.inkscape.org/namespaces/inkscape"
   xmlns:sodipodi="http://sodipodi.sourceforge.net/DTD/sodipodi-0.dtd"
   xmlns="http://www.w3.org/2000/svg"
   xmlns:svg="http://www.w3.org/2000/svg">
  <defs
     id="defs1" />
  <sodipodi:namedview
     id="namedview1"
     pagecolor="#ffffff"
     bordercolor="#000000"
     borderopacity="0.25"
     inkscape:showpageshadow="2"
     inkscape:pageopacity="0.0"
     inkscape:pagecheckerboard="0"
     inkscape:deskcolor="#d1d1d1"
     inkscape:zoom="0.12010414"
     inkscape:cx="208.15269"
     inkscape:cy="274.76155"
     inkscape:window-width="1728"
     inkscape:window-height="1051"
     inkscape:window-x="411"
     inkscape:window-y="1478"
     inkscape:window-maximized="1"
     inkscape:current-layer="g1"
     inkscape:clip-to-page="false" />
  <g
     inkscape:groupmode="layer"
     inkscape:label="Image"
     id="g1"
     transform="translate(-297.5621,-221.32068)">
    <path
       style="fill:#c0c0c0"
       d="m 562.0911,765.90063 c -11.76736,-1.36994 -22.35107,-4.4994 -49.28555,-14.57307 C 470.96078,735.67734 451.72754,724.89465 435.233,707.83822 424.78058,697.02975 419.09164,687.95251 414.8667,675.34191 410.7253,662.98066 409.45597,653.57687 410.09621,640 c 0.90877,-19.27105 4.55023,-33.04357 17.10078,-64.67758 4.18471,-10.54767 7.60856,-19.63362 7.60856,-20.19099 0,-2.09166 1.91691,-2.02603 7.624,0.26103 3.2318,1.2951 8.2385,2.94669 11.126,3.67019 2.8875,0.7235 5.25,1.86234 5.25,2.53076 0,0.66842 -3.17282,8.79585 -7.0507,18.06095 -13.37465,31.95491 -17.39551,46.93004 -17.41121,64.84564 -0.0109,12.45651 1.3097,18.93348 5.91293,29 9.36609,20.48215 34.29031,37.92183 75.54898,52.86225 5.225,1.89205 13.1,4.89038 17.5,6.66295 20.74419,8.35692 38.22551,11.25733 54.33806,9.01547 9.5754,-1.3323 16.44056,-3.32355 34.66194,-10.05378 44.78556,-16.54196 63.08377,-26.24478 78.09806,-41.41235 13.01242,-13.14526 18.34703,-26.53385 18.38458,-46.14088 0.0296,-15.46364 -2.847,-27.16753 -12.76438,-51.93366 -10.69285,-26.70268 -12.52913,-31.52693 -12.11538,-31.82935 0.21841,-0.15965 4.67212,-1.88791 9.89712,-3.84058 5.225,-1.95267 10.175,-3.84115 11,-4.19663 1.16131,-0.50037 2.44758,1.78243 5.69668,10.11013 2.30818,5.91604 6.7117,17.16953 9.7856,25.00777 10.73503,27.37353 14.92354,49.95265 12.53813,67.58959 -4.91697,36.3544 -25.13917,60.81089 -67.02041,81.05365 -15.96185,7.71496 -57.21266,23.52717 -69.23473,26.53896 -15.25264,3.82113 -29.16955,4.74948 -44.47972,2.96709 z m -17.42822,-42.25057 c -6.68211,-2.45917 -10.18923,-5.13711 -12.53356,-9.57031 C 530.00649,710.06541 528.89269,702 530.46116,702 c 0.36058,0 2.04808,1.06007 3.75,2.35571 10.06282,7.66069 16.21611,8.21913 27.4736,2.4934 l 6.62079,-3.36744 0.2565,-7.99084 0.25649,-7.99083 -8.03603,-6.33203 c -14.84132,-11.69429 -20.52636,-22.70948 -14.7182,-28.51764 3.52776,-3.52776 11.36683,-5.56302 24.26383,-6.29962 11.597,-0.66235 25.31412,0.71892 31.08579,3.13025 8.72459,3.64502 9.72139,10.13426 2.96624,19.31048 -4.12989,5.61005 -14.05081,14.78749 -18.64116,17.24417 -1.80548,0.96626 -1.98274,1.92003 -1.72299,9.27073 l 0.28953,8.19366 7.5,3.8322 c 9.72747,4.97035 13.98411,4.75949 23.70902,-1.17446 l 6.79098,-4.14372 0.30802,4.00361 c 0.59413,7.7225 -6.09399,15.36665 -15.71035,17.95607 -5.31398,1.43091 -13.04363,-0.41057 -23.20685,-5.52868 l -7.17482,-3.61318 -9.608,4.50082 c -10.93797,5.12384 -16.91047,6.28271 -22.25067,4.3174 z m -40.6619,-105.61603 c -9.47205,-5.93623 -11.24124,-27.21758 -3.03927,-36.5591 9.82186,-11.18649 23.84384,-1.57899 23.84384,16.33719 0,7.55026 -1.74316,12.64548 -5.93079,17.33561 -4.50872,5.04974 -9.78729,6.07406 -14.87378,2.8863 z m 132.70245,-0.32273 c -12.54378,-8.44908 -11.35308,-34.86272 1.8197,-40.36666 9.41674,-3.93456 18.38734,6.26161 18.61409,21.15716 0.13007,8.54478 -2.95015,15.74861 -8.22955,19.24675 -4.32101,2.86311 -7.91455,2.85214 -12.20424,-0.0372 z m -87.39788,-55.37995 c -27.15765,-1.3148 -50.6884,-4.26879 -70.68167,-8.87319 -27.14463,-6.25134 -50.12738,-15.88996 -59.49447,-24.95109 -8.52585,-8.24737 -8.4999,-13.69753 0.0883,-18.5444 5.51035,-3.10985 6.54908,-4.79219 6.57419,-10.64757 0.0208,-4.8532 1.62323,-8.06185 4.86279,-9.73709 2.57525,-1.33171 3.07801,-2.34896 4.10113,-8.29789 1.79149,-10.41656 7.53965,-26.54372 13.62282,-38.22043 13.49648,-25.90662 36.77753,-49.03189 61.92691,-61.51254 l 9,-4.46634 0.6994,4.20959 c 0.38467,2.31528 1.39423,10.08692 2.24346,17.27031 0.84924,7.1834 2.67661,22.4834 4.06083,34 1.38423,11.51661 2.96061,24.98929 3.50308,29.93929 1.43892,13.13012 2.07464,16.56772 2.96244,16.01903 1.87567,-1.15923 2.23658,-8.96869 2.86618,-62.01903 0.73631,-62.04107 0.47188,-59.72999 7.39952,-64.67116 3.20277,-2.28439 3.79336,-2.33446 30.94144,-2.62303 31.12375,-0.33084 32.5182,-0.094 37.44183,6.3589 l 2.88182,3.77692 0.63462,52.1909 c 0.623,51.23507 1.25804,65.97408 2.8859,66.98015 1.23775,0.76497 1.55615,-1.54274 6.96948,-50.51268 5.43465,-49.16276 5.55283,-50 7.05757,-50 2.04948,0 12.99033,6.09684 23.23954,12.95035 28.78406,19.24751 52.10193,52.76133 59.83369,85.99652 2.74672,11.80688 2.83677,12.05313 4.40763,12.05313 2.65518,0 5.30602,4.15702 5.96424,9.35305 0.99306,7.83932 1.31871,8.4521 5.92677,11.15261 6.98185,4.09163 8.10275,5.80805 6.74732,10.33207 -4.18875,13.98083 -36.06903,28.69851 -79.16676,36.54774 -30.53023,5.56035 -71.50564,7.78532 -109.5,5.94588 z m 51.4075,-31.36827 c 19.73687,-1.03507 35.79864,-2.77298 51.0925,-5.52829 12.5879,-2.2678 30.36315,-6.53401 31.45,-7.54825 1.33631,-1.24704 -0.0609,-1.1555 -15.97733,1.04684 -27.29967,3.77743 -43.36623,4.56948 -90.97267,4.48476 -43.15934,-0.0768 -66.53719,-1.13615 -89.00361,-4.03313 -8.69097,-1.12067 -3.86276,1.28589 8.00361,3.9893 22.46398,5.11778 45.30812,7.56658 78.5,8.41488 4.125,0.10543 16.23337,-0.26632 26.9075,-0.82611 z M 417.03353,455.25 c -23.39656,-34.59656 -41.9204,-71.20958 -49.60136,-98.03882 -5.73318,-20.02571 -7.11036,-30.2056 -7.06337,-52.21118 0.0391,-18.32353 0.32844,-21.84263 2.72501,-33.1461 3.04905,-14.38093 8.2803,-31.05641 12.35008,-39.36799 C 379.14231,224.93274 382.73152,222 388.27694,222 c 9.22191,0 26.85937,7.6079 39.69197,17.1211 9.02425,6.68996 23.63063,22.25724 30.32893,32.32417 12.38158,18.60836 24.68619,49.15347 32.47622,80.61931 4.53441,18.31563 5.66597,24.93542 4.26234,24.93542 -0.54793,0 -5.32004,3.1317 -10.6047,6.95934 -8.96109,6.49046 -9.6423,6.81049 -10.11078,4.75 C 474.04464,387.4942 472.93908,382.45 471.86412,377.5 458.57599,316.31036 440.37451,278.87978 414.42067,259.36993 408.08399,254.60656 397.86,249 395.51031,249 c -1.71113,0 -5.99979,13.02252 -8.89182,27 -1.78025,8.60415 -2.16871,13.8403 -2.15146,29 0.0183,16.10186 0.3601,20.09258 2.63656,30.78571 5.95379,27.96653 18.71498,56.40668 41.50558,92.5012 l 7.44242,11.7869 -4.12835,10.36476 c -2.2706,5.70062 -4.40721,11.75901 -4.74802,13.4631 -0.34082,1.70408 -0.97424,3.09833 -1.40761,3.09833 -0.43336,0 -4.3637,-5.2875 -8.73408,-11.75 z m 298.93772,-10.43633 -6.3343,-12.9424 9.15663,-15.18563 c 15.42076,-25.57428 26.74246,-50.42695 31.97324,-70.18564 7.434,-28.08111 6.67584,-60.9515 -2.02398,-87.75 -3.70436,-11.4107 -4.01488,-11.55821 -13.34119,-6.33752 -22.89928,12.8186 -42.10331,40.5019 -54.62424,78.74285 -3.25604,9.94446 -10.02732,36.17727 -12.04084,46.64773 -0.77422,4.02603 -1.63398,6.14117 -2.37989,5.85493 -1.16742,-0.44798 -15.31755,-9.3614 -19.00278,-11.97018 -1.91605,-1.35638 -1.88209,-1.6717 1.86153,-17.2847 11.67219,-48.67965 27.41549,-81.3634 50.04866,-103.90311 14.7085,-14.64777 30.49224,-24.36818 45.59544,-28.07994 5.85239,-1.43828 6.93553,-1.45128 10.11818,-0.12149 5.03717,2.10467 8.27541,6.87716 12.7835,18.8402 9.49558,25.19822 12.42442,40.45891 12.44823,64.86123 0.0417,42.68824 -11.70446,76.74599 -45.35278,131.5 -6.7599,11 -12.34931,20.05761 -12.42092,20.12803 -0.0716,0.0704 -2.98063,-5.69605 -6.46449,-12.81436 z"
       id="path1"
       inkscape:label="path1" />
  </g>
</svg>
